<svg width="51" height="51" viewBox="0 0 51 51" fill="none" xmlns="http://www.w3.org/2000/svg">
<g clip-path="url(#clip0_0_1041)">
<g clip-path="url(#clip1_0_1041)">
<mask id="mask0_0_1041" style="mask-type:luminance" maskUnits="userSpaceOnUse" x="0" y="0" width="51" height="51">
<path d="M0.331543 0.5H50.3315V50.5H0.331543V0.5Z" fill="white"/>
</mask>
<g mask="url(#mask0_0_1041)">
<path d="M16.9975 8.849C16.9975 13.449 20.7305 17.182 25.3305 17.182H41.9975C39.7877 17.1812 37.6687 16.303 36.1061 14.7404C34.5435 13.1779 33.6653 11.0588 33.6645 8.849M33.6495 8.833V0.5H16.9835V8.833H33.6495ZM33.6655 42.18C33.6655 37.581 29.9315 33.848 25.3315 33.848H8.66554C13.2655 33.848 16.9985 37.581 16.9985 42.181" fill="#00FFC6"/>
<path d="M17.0135 42.167V50.5H33.6795V42.167H17.0135Z" fill="#00FFC6"/>
<path d="M41.9985 17.1821C39.7887 17.1829 37.6697 18.0611 36.1071 19.6237C34.5445 21.1862 33.6663 23.3053 33.6655 25.5151V42.1801C33.6655 37.5801 37.3985 33.8471 41.9985 33.8471M41.9985 33.8181H50.3315V17.1521H41.9985V33.8181ZM8.66554 33.8491C13.2655 33.8491 16.9985 30.1151 16.9985 25.5151V8.8501C16.9985 13.4501 13.2655 17.1831 8.66554 17.1831M8.66454 17.1821H0.331543V33.8481H8.66454V17.1821Z" fill="#00FFC6"/>
</g>
</g>
</g>
<defs>
<clipPath id="clip0_0_1041">
<rect width="50" height="51" fill="white" transform="translate(0.331543)"/>
</clipPath>
<clipPath id="clip1_0_1041">
<rect width="50" height="51" fill="white" transform="translate(0.331543)"/>
</clipPath>
</defs>
</svg>
